<?xml version="1.0" encoding="UTF-8" standalone="no"?>
<!-- Created with Inkscape (http://www.inkscape.org/) -->

<svg
   viewBox="0 0 50 50"
   version="1.1"
   id="svg5"
   inkscape:version="1.2.2 (732a01da63, 2022-12-09)"
   sodipodi:docname="strzalka.svg"
   xmlns:inkscape="http://www.inkscape.org/namespaces/inkscape"
   xmlns:sodipodi="http://sodipodi.sourceforge.net/DTD/sodipodi-0.dtd"
   xmlns="http://www.w3.org/2000/svg"
   xmlns:svg="http://www.w3.org/2000/svg">
  <sodipodi:namedview
     id="namedview7"
     pagecolor="#505050"
     bordercolor="#eeeeee"
     borderopacity="1"
     inkscape:showpageshadow="0"
     inkscape:pageopacity="0"
     inkscape:pagecheckerboard="0"
     inkscape:deskcolor="#505050"
     inkscape:document-units="mm"
     showgrid="false"
     showguides="true"
     inkscape:zoom="4"
     inkscape:cx="45.875"
     inkscape:cy="59"
     inkscape:window-width="1920"
     inkscape:window-height="1009"
     inkscape:window-x="-8"
     inkscape:window-y="-8"
     inkscape:window-maximized="1"
     inkscape:current-layer="layer1">
    <sodipodi:guide
       position="-60.55534,39.002694"
       orientation="0,-1"
       id="guide335"
       inkscape:locked="false" />
    <sodipodi:guide
       position="-60.534877,11.000782"
       orientation="0,-1"
       id="guide337"
       inkscape:locked="false" />
    <sodipodi:guide
       position="12.499495,67.607193"
       orientation="1,0"
       id="guide344"
       inkscape:locked="false" />
    <sodipodi:guide
       position="37.500553,92.402579"
       orientation="1,0"
       id="guide346"
       inkscape:locked="false" />
  </sodipodi:namedview>
  <defs
     id="defs2">
    <inkscape:path-effect
       effect="bspline"
       id="path-effect1149"
       is_visible="true"
       lpeversion="1"
       weight="33.333333"
       steps="2"
       helper_size="0"
       apply_no_weight="true"
       apply_with_weight="true"
       only_selected="false" />
    <clipPath
       clipPathUnits="userSpaceOnUse"
       id="clipPath614">
      <path
         id="path616"
         style="fill:#ff0000;fill-opacity:1;fill-rule:nonzero;stroke:none;stroke-width:0.264583"
         d="M 0,0 V 50.000048 H 50.000048 V 0 Z m 23.367049,14.789795 c 0.01342,-0.0012 0.03036,0.0031 0.04858,0.01447 0.0027,0.0017 0.005,0.0037 0.0078,0.0052 0.0055,0.0031 0.04173,0.02112 0.04393,0.02222 0.04309,0.02213 0.08575,0.04422 0.128675,0.06666 0.106255,0.0545 0.209969,0.114183 0.315226,0.170533 0.08743,0.04631 0.176557,0.08945 0.267167,0.129191 0.03887,0.01769 0.0789,0.03197 0.119373,0.04547 0.08153,0.02721 0.05412,0.109414 -0.02739,0.08217 -0.0088,-0.0029 -0.01756,-0.0058 -0.02636,-0.0088 -0.0047,0.0097 -0.01164,0.01978 -0.02325,0.02945 -0.01132,0.0094 -0.02222,0.01939 -0.03462,0.02739 -0.07212,0.04673 -0.122089,-0.02565 -0.04961,-0.07183 0.008,-0.0051 0.01535,-0.01146 0.02274,-0.01757 -0.0054,-0.0023 -0.01071,-0.0043 -0.01602,-0.0067 -0.09265,-0.04069 -0.183451,-0.08488 -0.272851,-0.132291 -0.104997,-0.05623 -0.20872,-0.115616 -0.31471,-0.170016 -0.04265,-0.0223 -0.08535,-0.04416 -0.128157,-0.06615 -0.01703,-0.0087 -0.03341,-0.01706 -0.05013,-0.02636 -0.0028,-0.0016 -0.0051,-0.0035 -0.0078,-0.0052 -0.05466,-0.03416 -0.04285,-0.08423 -0.0026,-0.08785 z" />
    </clipPath>
  </defs>
  <g
     inkscape:label="Warstwa 1"
     inkscape:groupmode="layer"
     id="layer1">
    <path
       id="rect120"
       clip-path="url(#clipPath614)"
       style="fill:#BC6FF1;stroke-width:0.264583"
       d="M 25.000024 0 C 11.151116 0 -1.0026537e-14 11.151116 0 25.000024 C 0 38.84901 11.151116 50.000049 25.000024 50.000049 C 38.84901 50.000049 50.000049 38.84901 50.000049 25.000024 C 50.000049 11.151116 38.84901 -2.5066344e-15 25.000024 0 z M 24.971086 10.998812 L 25.057902 10.998812 L 25.069788 10.998812 C 25.115098 10.999166 25.165202 10.999863 25.213965 11.003463 C 25.214824 11.003521 25.215689 11.003403 25.216549 11.003463 C 25.484654 11.022226 25.747946 11.122144 25.96689 11.302669 L 25.967407 11.302669 C 25.969807 11.303869 25.972025 11.30552 25.974125 11.30732 C 25.976125 11.30912 25.97811 11.311321 25.97981 11.313521 C 25.980179 11.313834 25.980843 11.314555 25.980843 11.314555 C 25.981089 11.314868 25.981118 11.315588 25.98136 11.315588 C 26.00635 11.336808 26.031527 11.357847 26.055257 11.381217 L 26.090397 11.415841 L 26.090914 11.415841 C 26.091161 11.415981 26.091947 11.416217 26.091947 11.416357 L 26.092464 11.416874 C 26.09301 11.417109 26.092864 11.417189 26.094014 11.417391 C 26.095714 11.418291 26.095832 11.418675 26.097632 11.419975 C 26.098115 11.420383 26.098642 11.421125 26.098665 11.421525 C 26.099665 11.42195 26.100666 11.422675 26.101766 11.423075 C 26.101916 11.423156 26.102799 11.423401 26.102799 11.423592 C 26.103129 11.423762 26.103833 11.423451 26.103833 11.423592 L 26.103833 11.424109 C 26.109133 11.426209 26.113032 11.429611 26.115202 11.434961 C 26.115262 11.435141 26.116235 11.436862 26.116235 11.438062 L 26.116235 11.438578 L 26.116235 11.439095 L 26.116752 11.439612 C 26.117642 11.440812 26.118636 11.441312 26.119336 11.442712 C 26.119771 11.443812 26.120369 11.444813 26.120369 11.445813 L 26.120369 11.44633 C 26.120702 11.446568 26.121403 11.446616 26.121403 11.446847 C 26.123003 11.448047 26.124137 11.448647 26.125537 11.449947 C 26.126937 11.451247 26.126821 11.451748 26.128121 11.453048 C 26.129721 11.454648 26.132822 11.457349 26.134322 11.459249 L 26.134839 11.459766 L 26.135356 11.460282 L 26.135356 11.460799 L 26.135872 11.460799 L 26.136389 11.460799 C 26.137989 11.461596 26.13954 11.4629 26.14104 11.4639 C 26.141478 11.464162 26.142324 11.4658 26.143624 11.467 L 26.144141 11.467517 C 26.145541 11.468717 26.147075 11.469218 26.148275 11.470618 L 26.148792 11.471134 L 26.149308 11.471651 L 26.149825 11.472168 C 26.150625 11.473068 26.151626 11.474169 26.152926 11.475269 C 26.155326 11.477069 26.156693 11.47897 26.158093 11.48147 L 26.158093 11.481986 L 26.15861 11.481986 L 26.15861 11.482503 C 26.15889 11.48275 26.159644 11.482767 26.159644 11.48302 C 26.159828 11.483162 26.160662 11.483273 26.160677 11.483537 C 26.161452 11.484287 26.162127 11.484054 26.162227 11.484054 C 26.163327 11.484884 26.164328 11.485737 26.165328 11.486637 C 26.164917 11.485982 26.164366 11.484554 26.164294 11.484054 L 26.188066 11.507825 C 26.189266 11.508805 26.189966 11.509825 26.191166 11.510925 C 26.192466 11.512425 26.194 11.512526 26.1953 11.514026 L 37.11298 22.268925 C 37.628889 22.777085 37.628889 23.595732 37.11298 24.103955 L 36.693368 24.5184 C 36.177459 25.026629 35.346781 25.026629 34.830949 24.5184 L 26.614913 16.424837 C 26.614549 16.42503 26.613879 16.425182 26.613879 16.425354 L 26.613879 37.41012 C 26.613879 38.290789 25.89407 39.000203 25.000024 39.000203 C 24.106053 39.000203 23.386169 38.290789 23.386169 37.41012 L 23.386169 16.428971 L 23.385653 16.428455 L 15.1691 24.522534 C 14.653191 25.030767 13.822589 25.030766 13.306681 24.522534 L 12.887069 24.109123 C 12.371161 23.600891 12.37116 22.782249 12.887069 22.274093 L 23.811983 11.512476 C 23.812494 11.511821 23.812934 11.511109 23.813534 11.510409 C 23.814146 11.509665 23.814801 11.508941 23.815601 11.508341 L 23.816117 11.508341 L 23.83007 11.494389 C 23.83032 11.493939 23.830845 11.493572 23.831104 11.493355 C 23.831464 11.493037 23.83186 11.492567 23.832137 11.492322 L 23.832654 11.491805 L 23.833687 11.490771 C 23.834687 11.489271 23.835605 11.488037 23.837305 11.486637 L 23.837821 11.486637 C 23.838359 11.486028 23.838855 11.48467 23.838855 11.48457 C 23.839555 11.48367 23.840222 11.482986 23.840922 11.481986 C 23.842122 11.480386 23.843239 11.478836 23.844539 11.477336 C 23.845539 11.475936 23.847057 11.475118 23.848157 11.473718 C 23.849057 11.472518 23.849741 11.470784 23.850741 11.469584 C 23.851841 11.468284 23.853058 11.467167 23.854358 11.465967 C 23.855358 11.464967 23.856458 11.464383 23.857458 11.463383 C 23.858958 11.461783 23.860926 11.460132 23.862626 11.458732 C 23.863826 11.457732 23.864527 11.456732 23.865727 11.455632 C 23.867127 11.454332 23.868878 11.452797 23.870378 11.451497 C 23.871978 11.450097 23.873328 11.44898 23.875028 11.44788 C 23.875172 11.447571 23.875959 11.446974 23.876062 11.446847 C 23.877662 11.445047 23.87933 11.444629 23.88123 11.443229 C 23.88223 11.442329 23.883964 11.441229 23.885364 11.440129 C 23.886364 11.439329 23.887364 11.437728 23.888464 11.437028 L 23.945308 11.381217 C 23.953208 11.373417 23.962053 11.367063 23.970113 11.359513 C 23.970563 11.359013 23.971163 11.359364 23.971663 11.358997 C 23.972963 11.357697 23.974498 11.356579 23.975798 11.355379 C 23.976225 11.354985 23.976593 11.354521 23.976831 11.354346 C 24.075666 11.262933 24.185074 11.190294 24.300842 11.134204 L 24.301359 11.133687 C 24.301387 11.133402 24.301172 11.133197 24.302393 11.132654 C 24.309693 11.129354 24.324406 11.122977 24.340116 11.116117 C 24.347971 11.112717 24.356046 11.109356 24.364404 11.105782 C 24.372825 11.102236 24.381249 11.098295 24.389726 11.09493 C 24.396636 11.092188 24.403451 11.089284 24.410396 11.086662 C 24.412495 11.085824 24.414468 11.084912 24.416597 11.084078 C 24.425727 11.080502 24.43511 11.077188 24.44502 11.073743 C 24.462063 11.067812 24.480548 11.062099 24.49928 11.056689 C 24.510122 11.053458 24.52093 11.050335 24.531836 11.047388 C 24.545944 11.043588 24.560374 11.039956 24.574727 11.036536 C 24.591535 11.032561 24.608696 11.02897 24.62537 11.025684 C 24.628684 11.025031 24.631904 11.024233 24.635189 11.023617 C 24.636896 11.023299 24.638648 11.02341 24.640356 11.0231 C 24.640884 11.023003 24.64138 11.022678 24.641907 11.022583 C 24.663787 11.018583 24.684782 11.015264 24.706502 11.012764 C 24.714823 11.011768 24.723198 11.010512 24.731824 11.009664 C 24.756036 11.006998 24.78038 11.005819 24.804687 11.004496 C 24.821365 11.003428 24.838588 11.002146 24.856364 11.001396 C 24.862455 11.001139 24.86875 11.001093 24.874967 11.000879 L 24.876518 11.000879 C 24.877033 11.000879 24.877553 11.000873 24.878068 11.000879 C 24.899932 11.000152 24.92263 10.999704 24.948865 10.999329 C 24.955958 10.999224 24.963533 10.998897 24.971086 10.998812 z M 23.663672 14.944307 C 23.655572 14.948107 23.64441 14.952803 23.6337 14.957743 C 23.634375 14.958743 23.635167 14.959744 23.635767 14.960844 C 23.641567 14.963044 23.64741 14.965295 23.65282 14.968595 C 23.65812 14.971795 23.660422 14.973364 23.665222 14.976864 C 23.676072 14.985264 23.686845 14.994135 23.696745 15.003735 C 23.699645 15.007035 23.702313 15.010531 23.705013 15.014071 C 23.705478 15.014027 23.706163 15.014085 23.706563 15.014071 C 23.709963 15.013946 23.713459 15.014262 23.716899 15.014587 C 23.721299 15.024287 23.726961 15.033616 23.730851 15.043526 C 23.732451 15.043232 23.733902 15.042493 23.735502 15.042493 C 23.743602 15.040993 23.752057 15.039559 23.760307 15.038359 C 23.771227 15.036959 23.781953 15.035624 23.792863 15.034224 C 23.791163 15.034247 23.789495 15.034224 23.787695 15.034224 C 23.769105 15.016624 23.745778 15.002444 23.731368 14.981514 C 23.715318 14.972714 23.699289 14.964008 23.683309 14.95516 C 23.676709 14.95156 23.670272 14.948364 23.663672 14.944824 L 23.663672 14.944307 z M 23.880196 15.078666 C 23.870026 15.07901 23.859847 15.079716 23.849707 15.080216 C 23.852707 15.083716 23.855475 15.087712 23.857975 15.092102 C 23.865375 15.087602 23.872856 15.083306 23.880196 15.078666 z M 24.036259 15.172717 C 24.033959 15.173674 24.031841 15.174818 24.029541 15.175818 C 24.034341 15.175957 24.036843 15.178452 24.040393 15.179952 C 24.039991 15.178452 24.03936 15.176901 24.03936 15.175301 C 24.03836 15.174414 24.037359 15.173517 24.036259 15.172717 z M 23.617163 16.113745 C 23.616834 16.113942 23.61613 16.114065 23.61613 16.114262 C 23.616126 16.114606 23.616134 16.115295 23.61613 16.115295 C 23.616507 16.114807 23.617163 16.114145 23.617163 16.113745 z M 23.44198 16.348873 L 23.441463 16.34939 L 23.44198 16.349906 C 23.442025 16.349573 23.442037 16.348473 23.44198 16.348873 z " />
    <g
       id="g342"
       transform="matrix(1.015104,0,0,1,-0.37760016,-2.292058)" />
  </g>
</svg>
